<?xml version="1.0" encoding="iso-8859-1"?>
<!-- Generator: Adobe Illustrator 19.0.0, SVG Export Plug-In . SVG Version: 6.00 Build 0)  -->
<svg version="1.1" id="Capa_1" xmlns="http://www.w3.org/2000/svg" xmlns:xlink="http://www.w3.org/1999/xlink" x="0px" y="0px"
	 viewBox="0 0 352 352" style="enable-background:new 0 0 352 352;" xml:space="preserve">
<g>
	<g>
		<path d="M316.099,6c-3.815-3.829-8.995-5.987-14.4-6h-30.28v102.48c0,7.2-7.28,10.76-12.92,1.72l-20-32l-20,32
			c-5.68,9-12.92,5.48-12.92-1.72V0H80.139l0,0c-0.053,0-0.107,0-0.16,0c-11.311,0.066-20.426,9.289-20.36,20.6v26.8h-5.6
			c-6.383,0.006-12.5,2.553-17,7.08c-4.527,4.5-7.074,10.617-7.08,17c0.006,6.383,2.553,12.5,7.08,17
			c4.5,4.527,10.617,7.074,17,7.08h5.6V152h-5.6c-6.385-0.026-12.517,2.493-17.04,7c-4.527,4.5-7.074,10.617-7.08,17
			c0.069,6.378,2.674,12.466,7.24,16.92c4.5,4.527,10.617,7.074,17,7.08h5.6v56.64h-5.6c-6.383,0.006-12.5,2.553-17,7.08
			c-4.527,4.5-7.074,10.617-7.08,17c0.006,6.383,2.553,12.5,7.08,17c4.5,4.527,10.617,7.074,17,7.08h5.6v26.8
			c0.009,5.406,2.167,10.587,6,14.4c3.813,3.833,8.994,5.991,14.4,6h221.8c11.28-0.175,20.294-9.44,20.16-20.72V20.4
			C322.086,14.995,319.928,9.816,316.099,6z M116.139,334.96l-36.12-0.08c-0.925,0.002-1.815-0.357-2.48-1
			c-0.643-0.665-1.002-1.555-1-2.48v-26.8h5.6c6.383-0.006,12.5-2.553,17-7.08c4.527-4.5,7.074-10.617,7.08-17
			c-0.006-6.383-2.553-12.5-7.08-17c-4.5-4.527-10.617-7.074-17-7.08h-5.6V200h5.6c6.385,0.026,12.517-2.493,17.04-7
			c4.527-4.5,7.074-10.617,7.08-17c-0.037-6.361-2.598-12.446-7.12-16.92c-4.5-4.527-10.617-7.074-17-7.08h-5.6V95.52h5.68
			c6.383-0.006,12.5-2.553,17-7.08c4.527-4.5,7.074-10.617,7.08-17c-0.006-6.383-2.553-12.5-7.08-17
			c-4.5-4.527-10.617-7.074-17-7.08h-5.6v-26.8c0.022-1.935,1.585-3.498,3.52-3.52h36V334.96z"/>
	</g>
</g>
<g>
</g>
<g>
</g>
<g>
</g>
<g>
</g>
<g>
</g>
<g>
</g>
<g>
</g>
<g>
</g>
<g>
</g>
<g>
</g>
<g>
</g>
<g>
</g>
<g>
</g>
<g>
</g>
<g>
</g>
</svg>
